<svg id="visual" viewBox="0 0 900 600" width="900" height="600" xmlns="http://www.w3.org/2000/svg" xmlns:xlink="http://www.w3.org/1999/xlink" version="1.1"><rect x="0" y="0" width="900" height="600" fill="#ffffff"></rect><path d="M0 200L21.5 195.8C43 191.7 86 183.3 128.8 179.3C171.7 175.3 214.3 175.7 257.2 173.8C300 172 343 168 385.8 168.5C428.7 169 471.3 174 514.2 180.2C557 186.3 600 193.7 642.8 189C685.7 184.3 728.3 167.7 771.2 168C814 168.3 857 185.7 878.5 194.3L900 203L900 0L878.5 0C857 0 814 0 771.2 0C728.3 0 685.7 0 642.8 0C600 0 557 0 514.2 0C471.3 0 428.7 0 385.8 0C343 0 300 0 257.2 0C214.3 0 171.7 0 128.8 0C86 0 43 0 21.5 0L0 0Z" fill="#0066ff"></path><path d="M0 125L21.5 135.3C43 145.7 86 166.3 128.8 176C171.7 185.7 214.3 184.3 257.2 175.7C300 167 343 151 385.8 141.5C428.7 132 471.3 129 514.2 130.7C557 132.3 600 138.7 642.8 143.8C685.7 149 728.3 153 771.2 155.5C814 158 857 159 878.5 159.5L900 160L900 0L878.5 0C857 0 814 0 771.2 0C728.3 0 685.7 0 642.8 0C600 0 557 0 514.2 0C471.3 0 428.7 0 385.8 0C343 0 300 0 257.2 0C214.3 0 171.7 0 128.8 0C86 0 43 0 21.5 0L0 0Z" fill="#b459de"></path><path d="M0 159L21.5 159.2C43 159.3 86 159.7 128.8 151.5C171.7 143.3 214.3 126.7 257.2 116.3C300 106 343 102 385.8 105.5C428.7 109 471.3 120 514.2 126.8C557 133.7 600 136.3 642.8 133.5C685.7 130.7 728.3 122.3 771.2 118.3C814 114.3 857 114.7 878.5 114.8L900 115L900 0L878.5 0C857 0 814 0 771.2 0C728.3 0 685.7 0 642.8 0C600 0 557 0 514.2 0C471.3 0 428.7 0 385.8 0C343 0 300 0 257.2 0C214.3 0 171.7 0 128.8 0C86 0 43 0 21.5 0L0 0Z" fill="#e95db8"></path><path d="M0 109L21.5 109.3C43 109.7 86 110.3 128.8 109.2C171.7 108 214.3 105 257.2 101C300 97 343 92 385.8 94C428.7 96 471.3 105 514.2 102C557 99 600 84 642.8 84.3C685.7 84.7 728.3 100.3 771.2 107.3C814 114.3 857 112.7 878.5 111.8L900 111L900 0L878.5 0C857 0 814 0 771.2 0C728.3 0 685.7 0 642.8 0C600 0 557 0 514.2 0C471.3 0 428.7 0 385.8 0C343 0 300 0 257.2 0C214.3 0 171.7 0 128.8 0C86 0 43 0 21.5 0L0 0Z" fill="#fe759a"></path><path d="M0 51L21.5 53.2C43 55.3 86 59.7 128.8 55.3C171.7 51 214.3 38 257.2 36.7C300 35.3 343 45.7 385.8 47.7C428.7 49.7 471.3 43.3 514.2 41.7C557 40 600 43 642.8 44.7C685.7 46.3 728.3 46.7 771.2 45.8C814 45 857 43 878.5 42L900 41L900 0L878.5 0C857 0 814 0 771.2 0C728.3 0 685.7 0 642.8 0C600 0 557 0 514.2 0C471.3 0 428.7 0 385.8 0C343 0 300 0 257.2 0C214.3 0 171.7 0 128.8 0C86 0 43 0 21.5 0L0 0Z" fill="#ff968c"></path></svg>