<svg id="visual" viewBox="0 0 900 450" width="900" height="450" xmlns="http://www.w3.org/2000/svg" xmlns:xlink="http://www.w3.org/1999/xlink" version="1.1"><path d="M0 276L18.8 264.3C37.7 252.7 75.3 229.3 112.8 225.3C150.3 221.3 187.7 236.7 225.2 242.8C262.7 249 300.3 246 337.8 246C375.3 246 412.7 249 450.2 250.5C487.7 252 525.3 252 562.8 252.7C600.3 253.3 637.7 254.7 675.2 249.8C712.7 245 750.3 234 787.8 239.2C825.3 244.3 862.7 265.7 881.3 276.3L900 287L900 0L881.3 0C862.7 0 825.3 0 787.8 0C750.3 0 712.7 0 675.2 0C637.7 0 600.3 0 562.8 0C525.3 0 487.7 0 450.2 0C412.7 0 375.3 0 337.8 0C300.3 0 262.7 0 225.2 0C187.7 0 150.3 0 112.8 0C75.3 0 37.7 0 18.8 0L0 0Z" fill="#7161ef"></path><path d="M0 241L18.8 232.2C37.7 223.3 75.3 205.7 112.8 198C150.3 190.3 187.7 192.7 225.2 198.2C262.7 203.7 300.3 212.3 337.8 214.7C375.3 217 412.7 213 450.2 205C487.7 197 525.3 185 562.8 189.7C600.3 194.3 637.7 215.7 675.2 216.7C712.7 217.7 750.3 198.3 787.8 191.7C825.3 185 862.7 191 881.3 194L900 197L900 0L881.3 0C862.7 0 825.3 0 787.8 0C750.3 0 712.7 0 675.2 0C637.7 0 600.3 0 562.8 0C525.3 0 487.7 0 450.2 0C412.7 0 375.3 0 337.8 0C300.3 0 262.7 0 225.2 0C187.7 0 150.3 0 112.8 0C75.3 0 37.7 0 18.8 0L0 0Z" fill="#bc61d5"></path><path d="M0 187L18.8 187.7C37.7 188.3 75.3 189.7 112.8 192.7C150.3 195.7 187.7 200.3 225.2 193.7C262.7 187 300.3 169 337.8 170.3C375.3 171.7 412.7 192.3 450.2 200.2C487.7 208 525.3 203 562.8 201.3C600.3 199.7 637.7 201.3 675.2 201C712.7 200.7 750.3 198.3 787.8 199.5C825.3 200.7 862.7 205.3 881.3 207.7L900 210L900 0L881.3 0C862.7 0 825.3 0 787.8 0C750.3 0 712.7 0 675.2 0C637.7 0 600.3 0 562.8 0C525.3 0 487.7 0 450.2 0C412.7 0 375.3 0 337.8 0C300.3 0 262.7 0 225.2 0C187.7 0 150.3 0 112.8 0C75.3 0 37.7 0 18.8 0L0 0Z" fill="#e26ebd"></path><path d="M0 116L18.8 119.3C37.7 122.7 75.3 129.3 112.8 137.7C150.3 146 187.7 156 225.2 158.8C262.7 161.7 300.3 157.3 337.8 151C375.3 144.7 412.7 136.3 450.2 139.7C487.7 143 525.3 158 562.8 159.3C600.3 160.7 637.7 148.3 675.2 146.3C712.7 144.3 750.3 152.7 787.8 151.7C825.3 150.7 862.7 140.3 881.3 135.2L900 130L900 0L881.3 0C862.7 0 825.3 0 787.8 0C750.3 0 712.7 0 675.2 0C637.7 0 600.3 0 562.8 0C525.3 0 487.7 0 450.2 0C412.7 0 375.3 0 337.8 0C300.3 0 262.7 0 225.2 0C187.7 0 150.3 0 112.8 0C75.3 0 37.7 0 18.8 0L0 0Z" fill="#f486ad"></path><path d="M0 107L18.8 110.7C37.7 114.3 75.3 121.7 112.8 120C150.3 118.3 187.7 107.7 225.2 107.8C262.7 108 300.3 119 337.8 123.5C375.3 128 412.7 126 450.2 119.7C487.7 113.3 525.3 102.7 562.8 104.3C600.3 106 637.7 120 675.2 122.8C712.7 125.7 750.3 117.3 787.8 111.7C825.3 106 862.7 103 881.3 101.5L900 100L900 0L881.3 0C862.7 0 825.3 0 787.8 0C750.3 0 712.7 0 675.2 0C637.7 0 600.3 0 562.8 0C525.3 0 487.7 0 450.2 0C412.7 0 375.3 0 337.8 0C300.3 0 262.7 0 225.2 0C187.7 0 150.3 0 112.8 0C75.3 0 37.7 0 18.8 0L0 0Z" fill="#f9a2a9"></path><path d="M0 56L18.8 59.2C37.7 62.3 75.3 68.7 112.8 71C150.3 73.3 187.7 71.7 225.2 69.3C262.7 67 300.3 64 337.8 62.2C375.3 60.3 412.7 59.7 450.2 65.2C487.7 70.7 525.3 82.3 562.8 85.5C600.3 88.7 637.7 83.3 675.2 82.7C712.7 82 750.3 86 787.8 88C825.3 90 862.7 90 881.3 90L900 90L900 0L881.3 0C862.7 0 825.3 0 787.8 0C750.3 0 712.7 0 675.2 0C637.7 0 600.3 0 562.8 0C525.3 0 487.7 0 450.2 0C412.7 0 375.3 0 337.8 0C300.3 0 262.7 0 225.2 0C187.7 0 150.3 0 112.8 0C75.3 0 37.7 0 18.8 0L0 0Z" fill="#f5bfb4"></path><path d="M0 45L18.8 44C37.7 43 75.3 41 112.8 41.7C150.3 42.3 187.7 45.7 225.2 49.3C262.7 53 300.3 57 337.8 55.3C375.3 53.7 412.7 46.3 450.2 44.2C487.7 42 525.3 45 562.8 43.3C600.3 41.7 637.7 35.3 675.2 35.7C712.7 36 750.3 43 787.8 43C825.3 43 862.7 36 881.3 32.5L900 29L900 0L881.3 0C862.7 0 825.3 0 787.8 0C750.3 0 712.7 0 675.2 0C637.7 0 600.3 0 562.8 0C525.3 0 487.7 0 450.2 0C412.7 0 375.3 0 337.8 0C300.3 0 262.7 0 225.2 0C187.7 0 150.3 0 112.8 0C75.3 0 37.7 0 18.8 0L0 0Z" fill="#efd9ce"></path></svg>