<svg id="visual" viewBox="0 0 900 600" width="900" height="600" xmlns="http://www.w3.org/2000/svg" xmlns:xlink="http://www.w3.org/1999/xlink" version="1.1"><path d="M0 43L13.7 44C27.3 45 54.7 47 82 51C109.3 55 136.7 61 163.8 62C191 63 218 59 245.2 66C272.3 73 299.7 91 327 95C354.3 99 381.7 89 409 84C436.3 79 463.7 79 491 77C518.3 75 545.7 71 573 79C600.3 87 627.7 107 654.8 117C682 127 709 127 736.2 124C763.3 121 790.7 115 818 114C845.3 113 872.7 117 886.3 119L900 121L900 0L886.3 0C872.7 0 845.3 0 818 0C790.7 0 763.3 0 736.2 0C709 0 682 0 654.8 0C627.7 0 600.3 0 573 0C545.7 0 518.3 0 491 0C463.7 0 436.3 0 409 0C381.7 0 354.3 0 327 0C299.7 0 272.3 0 245.2 0C218 0 191 0 163.8 0C136.7 0 109.3 0 82 0C54.7 0 27.3 0 13.7 0L0 0Z" fill="#ffffff"></path><path d="M0 121L13.7 153C27.3 185 54.7 249 82 274C109.3 299 136.7 285 163.8 278C191 271 218 271 245.2 277C272.3 283 299.7 295 327 283C354.3 271 381.7 235 409 236C436.3 237 463.7 275 491 271C518.3 267 545.7 221 573 209C600.3 197 627.7 219 654.8 226C682 233 709 225 736.2 220C763.3 215 790.7 213 818 239C845.3 265 872.7 319 886.3 346L900 373L900 119L886.3 117C872.7 115 845.3 111 818 112C790.7 113 763.3 119 736.2 122C709 125 682 125 654.8 115C627.7 105 600.3 85 573 77C545.7 69 518.3 73 491 75C463.7 77 436.3 77 409 82C381.7 87 354.3 97 327 93C299.7 89 272.3 71 245.2 64C218 57 191 61 163.8 60C136.7 59 109.3 53 82 49C54.7 45 27.3 43 13.7 42L0 41Z" fill="#ffdcd5"></path><path d="M0 361L13.7 374C27.3 387 54.7 413 82 432C109.3 451 136.7 463 163.8 449C191 435 218 395 245.2 384C272.3 373 299.7 391 327 403C354.3 415 381.7 421 409 424C436.3 427 463.7 427 491 427C518.3 427 545.7 427 573 424C600.3 421 627.7 415 654.8 424C682 433 709 457 736.2 464C763.3 471 790.7 461 818 463C845.3 465 872.7 479 886.3 486L900 493L900 371L886.3 344C872.7 317 845.3 263 818 237C790.7 211 763.3 213 736.2 218C709 223 682 231 654.8 224C627.7 217 600.3 195 573 207C545.7 219 518.3 265 491 269C463.7 273 436.3 235 409 234C381.7 233 354.3 269 327 281C299.7 293 272.3 281 245.2 275C218 269 191 269 163.8 276C136.7 283 109.3 297 82 272C54.7 247 27.3 183 13.7 151L0 119Z" fill="#ffb9ad"></path><path d="M0 499L13.7 503C27.3 507 54.7 515 82 524C109.3 533 136.7 543 163.8 541C191 539 218 525 245.2 517C272.3 509 299.7 507 327 507C354.3 507 381.7 509 409 519C436.3 529 463.7 547 491 548C518.3 549 545.7 533 573 531C600.3 529 627.7 541 654.8 548C682 555 709 557 736.2 549C763.3 541 790.7 523 818 520C845.3 517 872.7 529 886.3 535L900 541L900 491L886.3 484C872.7 477 845.3 463 818 461C790.7 459 763.3 469 736.2 462C709 455 682 431 654.8 422C627.7 413 600.3 419 573 422C545.7 425 518.3 425 491 425C463.7 425 436.3 425 409 422C381.7 419 354.3 413 327 401C299.7 389 272.3 371 245.2 382C218 393 191 433 163.8 447C136.7 461 109.3 449 82 430C54.7 411 27.3 385 13.7 372L0 359Z" fill="#ff9686"></path><path d="M0 601L13.7 601C27.3 601 54.7 601 82 601C109.3 601 136.7 601 163.8 601C191 601 218 601 245.2 601C272.3 601 299.7 601 327 601C354.3 601 381.7 601 409 601C436.3 601 463.7 601 491 601C518.3 601 545.7 601 573 601C600.3 601 627.7 601 654.8 601C682 601 709 601 736.2 601C763.3 601 790.7 601 818 601C845.3 601 872.7 601 886.3 601L900 601L900 539L886.3 533C872.7 527 845.3 515 818 518C790.7 521 763.3 539 736.2 547C709 555 682 553 654.8 546C627.7 539 600.3 527 573 529C545.7 531 518.3 547 491 546C463.7 545 436.3 527 409 517C381.7 507 354.3 505 327 505C299.7 505 272.3 507 245.2 515C218 523 191 537 163.8 539C136.7 541 109.3 531 82 522C54.7 513 27.3 505 13.7 501L0 497Z" fill="#ff6f61"></path></svg>