<svg id="visual" viewBox="0 0 900 450" width="900" height="450" xmlns="http://www.w3.org/2000/svg" xmlns:xlink="http://www.w3.org/1999/xlink" version="1.1"><path d="M0 0L10.7 13.7C21.3 27.3 42.7 54.7 64.2 66.8C85.7 79 107.3 76 128.8 62.3C150.3 48.7 171.7 24.3 193 23.7C214.3 23 235.7 46 257 51.5C278.3 57 299.7 45 321.2 35.2C342.7 25.3 364.3 17.7 385.8 13.2C407.3 8.7 428.7 7.3 450 13.3C471.3 19.3 492.7 32.7 514.2 47.7C535.7 62.7 557.3 79.3 578.8 73.3C600.3 67.3 621.7 38.7 643 25.2C664.3 11.7 685.7 13.3 707 17.2C728.3 21 749.7 27 771.2 37.5C792.7 48 814.3 63 835.8 75C857.3 87 878.7 96 889.3 100.5L900 105L900 0L889.3 0C878.7 0 857.3 0 835.8 0C814.3 0 792.7 0 771.2 0C749.7 0 728.3 0 707 0C685.7 0 664.3 0 643 0C621.7 0 600.3 0 578.8 0C557.3 0 535.7 0 514.2 0C492.7 0 471.3 0 450 0C428.7 0 407.3 0 385.8 0C364.3 0 342.7 0 321.2 0C299.7 0 278.3 0 257 0C235.7 0 214.3 0 193 0C171.7 0 150.3 0 128.8 0C107.3 0 85.7 0 64.2 0C42.7 0 21.3 0 10.7 0L0 0Z" fill="#ffffff"></path><path d="M0 127L10.7 119.5C21.3 112 42.7 97 64.2 94.8C85.7 92.7 107.3 103.3 128.8 111.7C150.3 120 171.7 126 193 156C214.3 186 235.7 240 257 224.2C278.3 208.3 299.7 122.7 321.2 123.3C342.7 124 364.3 211 385.8 209.5C407.3 208 428.7 118 450 103.8C471.3 89.7 492.7 151.3 514.2 164.8C535.7 178.3 557.3 143.7 578.8 137.7C600.3 131.7 621.7 154.3 643 161.8C664.3 169.3 685.7 161.7 707 142.8C728.3 124 749.7 94 771.2 88.8C792.7 83.7 814.3 103.3 835.8 127.3C857.3 151.3 878.7 179.7 889.3 193.8L900 208L900 103L889.3 98.5C878.7 94 857.3 85 835.8 73C814.3 61 792.7 46 771.2 35.5C749.7 25 728.3 19 707 15.2C685.7 11.3 664.3 9.7 643 23.2C621.7 36.7 600.3 65.3 578.8 71.3C557.3 77.3 535.7 60.7 514.2 45.7C492.7 30.7 471.3 17.3 450 11.3C428.7 5.3 407.3 6.7 385.8 11.2C364.3 15.7 342.7 23.3 321.2 33.2C299.7 43 278.3 55 257 49.8C235.7 44.7 214.3 22.3 193 23C171.7 23.7 150.3 47.3 128.8 60.7C107.3 74 85.7 77 64.2 65.2C42.7 53.3 21.3 26.7 10.7 13.3L0 0Z" fill="#fbf5f2"></path><path d="M0 244L10.7 226.8C21.3 209.7 42.7 175.3 64.2 170.2C85.7 165 107.3 189 128.8 204.7C150.3 220.3 171.7 227.7 193 255.3C214.3 283 235.7 331 257 304.8C278.3 278.7 299.7 178.3 321.2 174.7C342.7 171 364.3 264 385.8 279C407.3 294 428.7 231 450 225C471.3 219 492.7 270 514.2 262.5C535.7 255 557.3 189 578.8 189C600.3 189 621.7 255 643 285C664.3 315 685.7 309 707 270.7C728.3 232.3 749.7 161.7 771.2 135.3C792.7 109 814.3 127 835.8 163.8C857.3 200.7 878.7 256.3 889.3 284.2L900 312L900 206L889.3 191.8C878.7 177.7 857.3 149.3 835.8 125.3C814.3 101.3 792.7 81.7 771.2 86.8C749.7 92 728.3 122 707 140.8C685.7 159.7 664.3 167.3 643 159.8C621.7 152.3 600.3 129.7 578.8 135.7C557.3 141.7 535.7 176.3 514.2 162.8C492.7 149.3 471.3 87.7 450 101.8C428.7 116 407.3 206 385.8 207.5C364.3 209 342.7 122 321.2 121.3C299.7 120.7 278.3 206.3 257 222.2C235.7 238 214.3 184 193 154C171.7 124 150.3 118 128.8 109.7C107.3 101.3 85.7 90.7 64.2 92.8C42.7 95 21.3 110 10.7 117.5L0 125Z" fill="#f7ece6"></path><path d="M0 388L10.7 364.8C21.3 341.7 42.7 295.3 64.2 281.8C85.7 268.3 107.3 287.7 128.8 292.8C150.3 298 171.7 289 193 303.3C214.3 317.7 235.7 355.3 257 322.3C278.3 289.3 299.7 185.7 321.2 190.2C342.7 194.7 364.3 307.3 385.8 341.2C407.3 375 428.7 330 450 315C471.3 300 492.7 315 514.2 302.2C535.7 289.3 557.3 248.7 578.8 249.3C600.3 250 621.7 292 643 328C664.3 364 685.7 394 707 371.5C728.3 349 749.7 274 771.2 228.3C792.7 182.7 814.3 166.3 835.8 200.8C857.3 235.3 878.7 320.7 889.3 363.3L900 406L900 310L889.3 282.2C878.7 254.3 857.3 198.7 835.8 161.8C814.3 125 792.7 107 771.2 133.3C749.7 159.7 728.3 230.3 707 268.7C685.7 307 664.3 313 643 283C621.7 253 600.3 187 578.8 187C557.3 187 535.7 253 514.2 260.5C492.7 268 471.3 217 450 223C428.7 229 407.3 292 385.8 277C364.3 262 342.7 169 321.2 172.7C299.7 176.3 278.3 276.7 257 302.8C235.7 329 214.3 281 193 253.3C171.7 225.7 150.3 218.3 128.8 202.7C107.3 187 85.7 163 64.2 168.2C42.7 173.3 21.3 207.7 10.7 224.8L0 242Z" fill="#f3e2da"></path><path d="M0 451L10.7 451C21.3 451 42.7 451 64.2 451C85.7 451 107.3 451 128.8 451C150.3 451 171.7 451 193 451C214.3 451 235.7 451 257 451C278.3 451 299.7 451 321.2 451C342.7 451 364.3 451 385.8 451C407.3 451 428.7 451 450 451C471.3 451 492.7 451 514.2 451C535.7 451 557.3 451 578.8 451C600.3 451 621.7 451 643 451C664.3 451 685.7 451 707 451C728.3 451 749.7 451 771.2 451C792.7 451 814.3 451 835.8 451C857.3 451 878.7 451 889.3 451L900 451L900 404L889.3 361.3C878.7 318.7 857.3 233.3 835.8 198.8C814.3 164.3 792.7 180.7 771.2 226.3C749.7 272 728.3 347 707 369.5C685.7 392 664.3 362 643 326C621.7 290 600.3 248 578.8 247.3C557.3 246.7 535.7 287.3 514.2 300.2C492.7 313 471.3 298 450 313C428.7 328 407.3 373 385.8 339.2C364.3 305.3 342.7 192.7 321.2 188.2C299.7 183.7 278.3 287.3 257 320.3C235.7 353.3 214.3 315.7 193 301.3C171.7 287 150.3 296 128.8 290.8C107.3 285.7 85.7 266.3 64.2 279.8C42.7 293.3 21.3 339.7 10.7 362.8L0 386Z" fill="#efd9ce"></path></svg>