<svg id="visual" viewBox="0 0 900 600" width="900" height="600" xmlns="http://www.w3.org/2000/svg" xmlns:xlink="http://www.w3.org/1999/xlink" version="1.1"><rect x="0" y="0" width="900" height="600" fill="#000000"></rect><path d="M0 436L21.5 424.5C43 413 86 390 128.8 376.7C171.7 363.3 214.3 359.7 257.2 358.7C300 357.7 343 359.3 385.8 367C428.7 374.7 471.3 388.3 514.2 391.5C557 394.7 600 387.3 642.8 382.3C685.7 377.3 728.3 374.7 771.2 371.8C814 369 857 366 878.5 364.5L900 363L900 601L878.5 601C857 601 814 601 771.2 601C728.3 601 685.7 601 642.8 601C600 601 557 601 514.2 601C471.3 601 428.7 601 385.8 601C343 601 300 601 257.2 601C214.3 601 171.7 601 128.8 601C86 601 43 601 21.5 601L0 601Z" fill="#8130fa"></path><path d="M0 398L21.5 410.5C43 423 86 448 128.8 459.5C171.7 471 214.3 469 257.2 466.7C300 464.3 343 461.7 385.8 462.8C428.7 464 471.3 469 514.2 471.8C557 474.7 600 475.3 642.8 466.5C685.7 457.7 728.3 439.3 771.2 438.8C814 438.3 857 455.7 878.5 464.3L900 473L900 601L878.5 601C857 601 814 601 771.2 601C728.3 601 685.7 601 642.8 601C600 601 557 601 514.2 601C471.3 601 428.7 601 385.8 601C343 601 300 601 257.2 601C214.3 601 171.7 601 128.8 601C86 601 43 601 21.5 601L0 601Z" fill="#ca30ca"></path><path d="M0 453L21.5 455.2C43 457.3 86 461.7 128.8 460.7C171.7 459.7 214.3 453.3 257.2 458.8C300 464.3 343 481.7 385.8 492.3C428.7 503 471.3 507 514.2 508.7C557 510.3 600 509.7 642.8 504.2C685.7 498.7 728.3 488.3 771.2 481.7C814 475 857 472 878.5 470.5L900 469L900 601L878.5 601C857 601 814 601 771.2 601C728.3 601 685.7 601 642.8 601C600 601 557 601 514.2 601C471.3 601 428.7 601 385.8 601C343 601 300 601 257.2 601C214.3 601 171.7 601 128.8 601C86 601 43 601 21.5 601L0 601Z" fill="#e155a8"></path><path d="M0 514L21.5 509.5C43 505 86 496 128.8 491.2C171.7 486.3 214.3 485.7 257.2 487C300 488.3 343 491.7 385.8 496C428.7 500.3 471.3 505.7 514.2 508.8C557 512 600 513 642.8 516.3C685.7 519.7 728.3 525.3 771.2 522.2C814 519 857 507 878.5 501L900 495L900 601L878.5 601C857 601 814 601 771.2 601C728.3 601 685.7 601 642.8 601C600 601 557 601 514.2 601C471.3 601 428.7 601 385.8 601C343 601 300 601 257.2 601C214.3 601 171.7 601 128.8 601C86 601 43 601 21.5 601L0 601Z" fill="#e07e99"></path><path d="M0 571L21.5 564.5C43 558 86 545 128.8 538C171.7 531 214.3 530 257.2 531.5C300 533 343 537 385.8 543C428.7 549 471.3 557 514.2 557.8C557 558.7 600 552.3 642.8 550C685.7 547.7 728.3 549.3 771.2 546C814 542.7 857 534.3 878.5 530.2L900 526L900 601L878.5 601C857 601 814 601 771.2 601C728.3 601 685.7 601 642.8 601C600 601 557 601 514.2 601C471.3 601 428.7 601 385.8 601C343 601 300 601 257.2 601C214.3 601 171.7 601 128.8 601C86 601 43 601 21.5 601L0 601Z" fill="#cfa4a4"></path></svg>