<svg id="visual" viewBox="0 0 900 450" width="900" height="450" xmlns="http://www.w3.org/2000/svg" xmlns:xlink="http://www.w3.org/1999/xlink" version="1.1"><path d="M0 265L18.8 257.8C37.7 250.7 75.3 236.3 112.8 233C150.3 229.7 187.7 237.3 225.2 234C262.7 230.7 300.3 216.3 337.8 218.3C375.3 220.3 412.7 238.7 450.2 233.8C487.7 229 525.3 201 562.8 197.5C600.3 194 637.7 215 675.2 227.7C712.7 240.3 750.3 244.7 787.8 235.2C825.3 225.7 862.7 202.3 881.3 190.7L900 179L900 0L881.3 0C862.7 0 825.3 0 787.8 0C750.3 0 712.7 0 675.2 0C637.7 0 600.3 0 562.8 0C525.3 0 487.7 0 450.2 0C412.7 0 375.3 0 337.8 0C300.3 0 262.7 0 225.2 0C187.7 0 150.3 0 112.8 0C75.3 0 37.7 0 18.8 0L0 0Z" fill="#7161ef"></path><path d="M0 199L18.8 192.7C37.7 186.3 75.3 173.7 112.8 163.2C150.3 152.7 187.7 144.3 225.2 146.7C262.7 149 300.3 162 337.8 170.2C375.3 178.3 412.7 181.7 450.2 172.5C487.7 163.3 525.3 141.7 562.8 143.3C600.3 145 637.7 170 675.2 169.3C712.7 168.7 750.3 142.3 787.8 130.5C825.3 118.7 862.7 121.3 881.3 122.7L900 124L900 0L881.3 0C862.7 0 825.3 0 787.8 0C750.3 0 712.7 0 675.2 0C637.7 0 600.3 0 562.8 0C525.3 0 487.7 0 450.2 0C412.7 0 375.3 0 337.8 0C300.3 0 262.7 0 225.2 0C187.7 0 150.3 0 112.8 0C75.3 0 37.7 0 18.8 0L0 0Z" fill="#efd9ce"></path><path d="M0 56L18.8 58.5C37.7 61 75.3 66 112.8 74.3C150.3 82.7 187.7 94.3 225.2 102.7C262.7 111 300.3 116 337.8 114.2C375.3 112.3 412.7 103.7 450.2 99.2C487.7 94.7 525.3 94.3 562.8 94C600.3 93.7 637.7 93.3 675.2 94.7C712.7 96 750.3 99 787.8 96.8C825.3 94.7 862.7 87.3 881.3 83.7L900 80L900 0L881.3 0C862.7 0 825.3 0 787.8 0C750.3 0 712.7 0 675.2 0C637.7 0 600.3 0 562.8 0C525.3 0 487.7 0 450.2 0C412.7 0 375.3 0 337.8 0C300.3 0 262.7 0 225.2 0C187.7 0 150.3 0 112.8 0C75.3 0 37.7 0 18.8 0L0 0Z" fill="#7161ef"></path></svg>