<svg id="visual" viewBox="0 0 900 600" width="900" height="600" xmlns="http://www.w3.org/2000/svg" xmlns:xlink="http://www.w3.org/1999/xlink" version="1.1"><rect x="0" y="0" width="900" height="600" fill="#FFFFFF"></rect><path d="M0 164L21.5 165.2C43 166.3 86 168.7 128.8 177.7C171.7 186.7 214.3 202.3 257.2 207C300 211.7 343 205.3 385.8 208.2C428.7 211 471.3 223 514.2 226.3C557 229.7 600 224.3 642.8 215.3C685.7 206.3 728.3 193.7 771.2 195.5C814 197.3 857 213.7 878.5 221.8L900 230L900 0L878.5 0C857 0 814 0 771.2 0C728.3 0 685.7 0 642.8 0C600 0 557 0 514.2 0C471.3 0 428.7 0 385.8 0C343 0 300 0 257.2 0C214.3 0 171.7 0 128.8 0C86 0 43 0 21.5 0L0 0Z" fill="#fa7268"></path><path d="M0 177L21.5 180.5C43 184 86 191 128.8 187.8C171.7 184.7 214.3 171.3 257.2 171.2C300 171 343 184 385.8 177.7C428.7 171.3 471.3 145.7 514.2 133.3C557 121 600 122 642.8 127.2C685.7 132.3 728.3 141.7 771.2 143C814 144.3 857 137.7 878.5 134.3L900 131L900 0L878.5 0C857 0 814 0 771.2 0C728.3 0 685.7 0 642.8 0C600 0 557 0 514.2 0C471.3 0 428.7 0 385.8 0C343 0 300 0 257.2 0C214.3 0 171.7 0 128.8 0C86 0 43 0 21.5 0L0 0Z" fill="#ef5f67"></path><path d="M0 114L21.5 121.2C43 128.3 86 142.7 128.8 140.2C171.7 137.7 214.3 118.3 257.2 117.7C300 117 343 135 385.8 139.8C428.7 144.7 471.3 136.3 514.2 134.7C557 133 600 138 642.8 138.3C685.7 138.7 728.3 134.3 771.2 126.2C814 118 857 106 878.5 100L900 94L900 0L878.5 0C857 0 814 0 771.2 0C728.3 0 685.7 0 642.8 0C600 0 557 0 514.2 0C471.3 0 428.7 0 385.8 0C343 0 300 0 257.2 0C214.3 0 171.7 0 128.8 0C86 0 43 0 21.5 0L0 0Z" fill="#e34c67"></path><path d="M0 59L21.5 66.2C43 73.3 86 87.7 128.8 97.3C171.7 107 214.3 112 257.2 109.5C300 107 343 97 385.8 87C428.7 77 471.3 67 514.2 71.2C557 75.3 600 93.7 642.8 98.8C685.7 104 728.3 96 771.2 87.7C814 79.3 857 70.7 878.5 66.3L900 62L900 0L878.5 0C857 0 814 0 771.2 0C728.3 0 685.7 0 642.8 0C600 0 557 0 514.2 0C471.3 0 428.7 0 385.8 0C343 0 300 0 257.2 0C214.3 0 171.7 0 128.8 0C86 0 43 0 21.5 0L0 0Z" fill="#d53867"></path><path d="M0 25L21.5 31.2C43 37.3 86 49.7 128.8 52.8C171.7 56 214.3 50 257.2 46C300 42 343 40 385.8 43C428.7 46 471.3 54 514.2 54C557 54 600 46 642.8 47.7C685.7 49.3 728.3 60.7 771.2 58.8C814 57 857 42 878.5 34.5L900 27L900 0L878.5 0C857 0 814 0 771.2 0C728.3 0 685.7 0 642.8 0C600 0 557 0 514.2 0C471.3 0 428.7 0 385.8 0C343 0 300 0 257.2 0C214.3 0 171.7 0 128.8 0C86 0 43 0 21.5 0L0 0Z" fill="#c62368"></path></svg>