<?xml version="1.0" encoding="UTF-8" standalone="no"?><!DOCTYPE svg PUBLIC "-//W3C//DTD SVG 1.1//EN" "http://www.w3.org/Graphics/SVG/1.1/DTD/svg11.dtd"><svg width="100%" height="100%" viewBox="0 0 3334 2500" version="1.1" xmlns="http://www.w3.org/2000/svg" xmlns:xlink="http://www.w3.org/1999/xlink" xml:space="preserve" xmlns:serif="http://www.serif.com/" style="fill-rule:evenodd;clip-rule:evenodd;stroke-linecap:round;stroke-linejoin:round;stroke-miterlimit:1.5;"><g><g transform="matrix(1,0,0,0.939581,1.13687e-13,39.6563)"><text x="666.922px" y="1442.41px" style="font-family:'Arial-Black', 'Arial Black', sans-serif;font-weight:900;font-size:431.229px;fill:#fff;">SOUR<tspan x="2024.41px 2359.83px " y="1442.41px 1442.41px ">CE</tspan></text></g><g><g><path d="M1685.37,1075.81c101.665,-0.598 184.663,76.967 185.228,173.104c0.566,96.137 -81.514,174.673 -183.178,175.272c-101.665,0.598 -184.663,-76.967 -185.229,-173.104c-0.565,-96.137 81.514,-174.673 183.179,-175.272Z" style="fill:#fff;"/><path d="M1507.34,1264.23c9.067,-0.053 26.434,-7.671 35.501,-7.724c5.407,-0.032 10.819,-0.005 16.226,-0.096c30.362,-0.507 10.934,-44.255 25.404,-64.684c9.463,-13.357 32.744,-9.818 45.803,-17.647c30.27,-18.147 21.537,-69.499 21.403,-92.349" style="fill:#fff;"/><path d="M1507.37,1268.4c4.82,-0.029 11.862,-1.989 18.887,-4.027c6.192,-1.797 12.367,-3.673 16.614,-3.698c5.423,-0.031 10.85,-0.005 16.272,-0.096c5.949,-0.099 10.303,-1.668 13.55,-4.144c4.773,-3.642 7.256,-9.423 8.385,-16.466c1.196,-7.46 0.921,-16.438 1.428,-25.111c0.451,-7.706 1.449,-15.183 5.371,-20.72c4.135,-5.837 11.439,-7.682 18.987,-9.223c9.115,-1.862 18.667,-3.127 25.559,-7.259c13.147,-7.882 19.695,-21.423 22.598,-36.554c4.066,-21.192 0.91,-45.493 0.828,-59.393c-0.013,-2.3 -1.891,-4.156 -4.191,-4.142c-2.299,0.013 -4.155,1.891 -4.142,4.191c0.08,13.52 3.276,37.16 -0.679,57.773c-2.444,12.74 -7.63,24.341 -18.699,30.977c-6.167,3.698 -14.785,4.576 -22.942,6.242c-9.725,1.986 -18.791,5.049 -24.119,12.571c-3.25,4.588 -5.043,10.199 -6,16.284c-1.299,8.263 -1.047,17.44 -1.503,25.708c-0.24,4.365 -0.673,8.455 -1.774,11.93c-0.901,2.842 -2.235,5.245 -4.514,6.822c-2.025,1.402 -4.73,2.123 -8.282,2.182c-5.392,0.09 -10.789,0.064 -16.182,0.095c-4.819,0.029 -11.862,1.989 -18.887,4.027c-6.192,1.797 -12.366,3.672 -16.614,3.697c-2.3,0.014 -4.156,1.892 -4.142,4.192c0.013,2.299 1.891,4.155 4.191,4.142Z"/><path d="M1538.26,1347.23c16.729,-0.099 34.561,-1.678 48.465,-10.811c14.528,-9.544 18.656,-32.38 30.875,-43.934c13.963,-13.201 29.285,-23.729 43.858,-27.345c6.467,-1.605 18.644,-3.032 25.028,-0.605c36.738,13.966 43.713,43.609 56.45,78.195c2.856,7.755 9.377,22.026 18.843,30.061c3.866,3.281 32.439,14.878 33.298,14.873" style="fill:#fff;"/><path d="M1795.97,1383.59l-0.515,-0.177c-5.07,-1.825 -27.642,-10.973 -30.977,-13.803c-8.901,-7.556 -14.943,-21.032 -17.629,-28.324c-13.188,-35.81 -20.841,-66.19 -58.879,-80.65c-7.017,-2.668 -20.404,-1.308 -27.512,0.456c-15.169,3.763 -31.184,14.62 -45.717,28.362c-6.42,6.069 -10.803,15.044 -15.4,23.813c-4.035,7.697 -8.202,15.265 -14.901,19.665c-13.244,8.7 -30.267,10.033 -46.202,10.127c-2.299,0.014 -4.155,1.892 -4.142,4.191c0.014,2.3 1.892,4.156 4.191,4.142c17.524,-0.103 36.164,-1.928 50.728,-11.495c7.83,-5.143 12.991,-13.765 17.707,-22.761c4.154,-7.923 7.943,-16.143 13.744,-21.627c13.391,-12.661 28.022,-22.861 41.999,-26.329c5.827,-1.446 16.791,-2.941 22.544,-0.754c35.438,13.472 41.733,42.377 54.02,75.74c3.027,8.217 10.026,23.283 20.056,31.797c3.222,2.735 22.853,11.15 31.06,14.349c2.809,1.095 4.715,1.516 4.96,1.514c2.3,-0.013 4.156,-1.891 4.142,-4.191c-0.012,-1.985 -1.414,-3.64 -3.277,-4.045Z"/><path d="M1593.29,1397.1c16.401,-1.421 24.716,-17.42 34.164,-30.11c26.594,-35.722 60.636,-33.002 69.078,-12.493c4.297,10.438 11.157,23.863 13.903,34.545c4.055,15.768 15.715,17.672 25.669,26.372" style="fill:#fff;"/><path d="M1593.65,1401.25c9.299,-0.806 16.373,-5.621 22.394,-12.157c5.406,-5.867 9.944,-13.157 14.753,-19.616c14.765,-19.832 31.791,-27.248 44.913,-25.597c7.874,0.99 14.158,5.369 16.97,12.202c4.231,10.277 11.017,23.48 13.721,33.996c2.756,10.718 8.541,15.835 15.221,20.299c3.789,2.533 7.903,4.819 11.741,8.173c1.731,1.513 4.365,1.336 5.879,-0.395c1.513,-1.732 1.336,-4.366 -0.395,-5.879c-4.126,-3.606 -8.521,-6.105 -12.595,-8.827c-5.114,-3.418 -9.67,-7.24 -11.78,-15.446c-2.789,-10.847 -9.722,-24.493 -14.086,-35.093c-2.975,-7.228 -8.64,-12.591 -15.98,-15.403c-15.768,-6.038 -40.16,-0.05 -60.293,26.993c-4.639,6.231 -8.983,13.287 -14.197,18.947c-4.599,4.991 -9.883,8.885 -16.985,9.501c-2.291,0.198 -3.99,2.219 -3.791,4.511c0.198,2.291 2.219,3.989 4.51,3.791Z"/><path d="M1840.54,1338.5c-45.074,-21.427 -27.668,-85.038 -81.389,-112.994c-10.003,-5.205 -43.523,-18.12 -45.941,-19.494c-35.089,-19.95 12.672,-47.838 22.759,-68.216c3.86,-7.797 8.002,-19.605 7.951,-28.278c-0.022,-3.705 0.808,-19.898 0.815,-18.869" style="fill:#fff;"/><path d="M1748.86,1091.23c0.029,-0.199 0.042,-0.402 0.041,-0.608c-0.018,-3.025 -2.369,-3.784 -2.528,-3.852c-0.116,-0.05 -5.488,-0.788 -5.819,3.752c-0.141,1.939 -0.821,15.625 -0.801,19.018c0.048,8.106 -3.911,19.117 -7.518,26.405c-4.963,10.025 -19.273,21.831 -27.946,33.651c-6.172,8.411 -9.515,16.935 -7.145,24.814c1.592,5.291 5.757,10.531 14.007,15.221c2.425,1.379 36.043,14.347 46.077,19.568c25.758,13.404 34.273,35.499 41.943,56.669c8.379,23.129 15.967,45.167 39.58,56.392c2.077,0.987 4.565,0.102 5.552,-1.975c0.987,-2.076 0.103,-4.564 -1.974,-5.552c-21.462,-10.202 -27.707,-30.682 -35.323,-51.704c-8.327,-22.982 -17.969,-46.671 -45.932,-61.222c-9.971,-5.189 -43.394,-18.05 -45.805,-19.42c-5.787,-3.291 -9.028,-6.665 -10.145,-10.377c-1.693,-5.629 1.475,-11.475 5.884,-17.484c8.956,-12.206 23.57,-24.532 28.695,-34.884c4.112,-8.307 8.438,-20.911 8.383,-30.151c-0.018,-3.118 0.704,-16.931 0.774,-18.261Zm-6.387,2.914c-1.139,-0.737 -1.896,-2.016 -1.905,-3.473c0.012,2.072 1.159,3.05 1.905,3.473Zm5.206,-0.552l-0.078,0.076l0.036,-0.032l0.042,-0.044Zm0.156,-0.163l-0.109,0.116l0.084,-0.087l0.061,-0.071l-0.036,0.042Zm0.156,-0.185l-0.018,0.022l0.018,-0.022Z"/></g><g><path d="M1698.71,927.34c182.353,-1.073 331.216,136.7 332.221,307.472c1.005,170.771 -146.227,310.287 -328.58,311.36c-182.352,1.073 -331.215,-136.701 -332.22,-307.472c-1.005,-170.772 146.226,-310.288 328.579,-311.36Z" style="fill:#fff;fill-opacity:0;stroke:#000;stroke-width:6.25px;"/><path d="M1789.63,1473.96c29.549,-0.174 53.677,22.985 53.846,51.684c0.169,28.699 -23.685,52.14 -53.234,52.314c-29.55,0.173 -53.677,-22.985 -53.846,-51.684c-0.169,-28.699 23.684,-52.14 53.234,-52.314Z" style="fill:#fff;stroke:#000;stroke-width:6.25px;"/></g><g><g><path d="M1696.89,771.388c264.802,0.746 479.137,215.811 478.337,479.964c-0.801,264.153 -216.437,478.006 -481.239,477.26c-264.802,-0.746 -479.138,-215.811 -478.337,-479.964c0.801,-264.153 216.437,-478.006 481.239,-477.26Z" style="fill:#fff;fill-opacity:0;stroke:#000;stroke-width:6.25px;"/><path d="M1215.77,1210.79c31.73,0.089 57.413,25.639 57.318,57.019c-0.095,31.38 -25.933,56.785 -57.663,56.695c-31.73,-0.089 -57.413,-25.639 -57.318,-57.019c0.095,-31.381 25.933,-56.785 57.663,-56.695Z" style="fill:#fff;stroke:#000;stroke-width:6.25px;"/></g><path d="M1969.9,804.731c30.606,0.086 55.38,24.731 55.288,54.999c-0.092,30.269 -25.015,54.774 -55.621,54.688c-30.605,-0.087 -55.379,-24.731 -55.287,-55c0.091,-30.269 25.014,-54.774 55.62,-54.687Z" style="fill:#fff;stroke:#000;stroke-width:6.25px;"/></g></g></g></svg>